/* XPM */
static char *f2fe083663b148f6ffcddc47aea15671LXL1kGmmJOerJltk[] = {
/* columns rows colors chars-per-pixel */
"16 32 14 1 ",
"  c None",
". c None",
"X c #432E27",
"o c #6A4834",
"O c gray9",
"+ c #BFA787",
"@ c #E8D4B2",
"# c #681C1C",
"$ c #C43C3C",
"% c #882E2E",
"& c #F8F8F8",
"* c #5586B9",
"= c #65659B",
"- c white",
/* pixels */
"                ",
"                ",
"                ",
"                ",
"                ",
"                ",
"         XX     ",
"     XXXXooXXO  ",
"   XXooooXOoooO ",
"  XoooooooooXO  ",
"  XooXXXXXoooXO ",
" XoXX+++++XXXXXO",
" XX++@@@@@++XXXO",
" OX+@@@@@@@@+OO ",
" O+@@O@@@@O@@+O ",
"  O@@O@@@@O@@O  ",
"  O+@@@@@@@@+O  ",
"   O+@@@@@@+O   ",
"  #$$$+@@+$$$O  ",
"  #$%$$$$$$%$O  ",
" O@+O%$$$$%O+@O ",
" O++OXX&&XXO++O ",
"  OOO%%%%%%OOO  ",
"    O*=OO=*O    ",
"    OooOOooO    ",
"     OO  OO     ",
"                ",
"                ",
"                ",
"                ",
"                ",
"                "
};
