/* XPM */
static char *_cf1b46abec445588a7064f61caf2267yxSJ64GIHxX2OMBh[] = {
/* columns rows colors chars-per-pixel */
"16 16 3 1 ",
"  c #708C8C",
". c #B6CECE",
"X c white",
/* pixels */
"                ",
" .............. ",
" .............. ",
" .............. ",
" .............. ",
" .............. ",
" .............. ",
"                ",
"                ",
".......  .......",
".......  .......",
".......  .......",
".......  .......",
".......  .......",
".......  .......",
"                "
};
